<svg width="50" height="50" viewBox="0 0 50 50" fill="none" xmlns="http://www.w3.org/2000/svg">
<g clip-path="url(#clip0_1_2)">
<path d="M11.5466 31.076C11.1011 32.9104 11.4157 34.2988 12.3327 35.4779C13.2497 36.657 12.2278 37.3382 11.4682 37.7051C10.7086 38.0721 10.42 38.3079 10.3676 38.8318C10.3152 39.3557 11.0228 41.3998 11.3634 41.7404C11.704 42.081 12.4641 42.8146 12.9615 43.5747C13.4595 44.3343 14.1143 43.8369 14.1143 43.8369C14.5858 44.2038 15.0576 43.8369 15.0576 43.8369C15.8961 44.2299 16.394 43.6796 16.394 43.6796C16.813 43.1818 15.9225 42.6578 15.9225 42.6578C15.3722 41.6884 14.9531 42.4745 14.7958 42.2648C14.6386 42.0551 14.5077 42.029 13.6692 41.0597C12.8306 40.0904 15.0055 40.4045 15.7652 40.2212C16.525 40.0378 17.9662 39.0685 17.9662 39.0685C17.9662 40.2212 18.3593 40.0379 18.9356 40.6407C19.512 41.2434 19.7742 41.6365 20.5338 41.9507C21.2934 42.2653 21.6605 42.2128 22.3417 42.6583C23.023 43.1038 24.4378 43.0253 24.4378 43.0253C25.0666 43.2351 25.6694 43.0253 25.6694 43.0253C27.1891 43.0253 26.5603 42.5014 26.01 41.7937C25.4597 41.0861 24.3594 41.6888 23.8615 41.3482C23.3637 41.0076 22.1321 40.4837 21.5033 40.1167C20.8746 39.7497 21.5033 39.0949 21.5033 38.4921C21.5033 37.8894 21.9748 37.4179 21.9748 37.4179H24.4115C24.4115 37.4179 26.2977 37.287 26.7957 38.3088C27.2936 39.3306 28.0532 39.5404 28.0796 40.0907C28.1061 40.641 27.6341 40.6934 27.6341 40.6934C26.5859 40.4053 26.5599 42.0822 26.5599 42.0822C27.8438 43.7854 30.333 41.3746 30.333 41.3746C33.2151 41.1124 33.0054 36.8679 33.0054 36.8679C33.5818 36.4489 34.499 35.3482 35.1015 34.3523C35.7042 33.3566 37.4073 32.597 38.927 33.3306C40.4467 34.0642 40.7088 32.8327 40.7088 32.8327C41.2328 32.9112 41.39 32.23 41.39 32.23C42.0712 31.4704 40.8661 31.2867 40.8397 29.4003C40.8134 27.5139 39.2416 27.1729 39.32 26.623C39.3985 26.0727 40.997 24.3172 40.6039 24.4745C40.261 24.6116 38.8202 25.3278 38.4593 25.5076C38.4473 25.4602 38.4236 25.3926 38.3767 25.287C38.1669 24.8156 35.8611 26.3088 35.8611 26.3088C35.8611 26.3088 32.2062 28.4705 31.4985 28.6278C30.7908 28.7851 30.8698 28.3132 30.0052 28.392C29.1406 28.4705 28.7079 28.5493 24.8172 26.8983C20.9262 25.2477 13.8395 27.9022 13.8395 27.9022C13.8395 27.9022 8.18061 18.8815 12.8966 14.9907C17.6126 11.1 11.305 7.85788 9.77209 16.3465C8.23924 24.8353 11.9921 29.2422 11.5466 31.076Z" fill="url(#paint0_linear_1_2)"/>
</g>
<defs>
<linearGradient id="paint0_linear_1_2" x1="25.5002" y1="11" x2="25.5002" y2="44" gradientUnits="userSpaceOnUse">
<stop offset="0.300287" stop-color="#93E38C"/>
<stop offset="1" stop-color="#7CB6FA"/>
</linearGradient>
<clipPath id="clip0_1_2">
<rect width="33" height="33" fill="white" transform="translate(9 11)"/>
</clipPath>
</defs>
</svg>
